# xmcd
#
# Track frame offsets:
#	150
#	16485
#	31789
#	48725
#	65498
#	82569
#	99711
#	115051
#	131370
#	148073
#	164299
#
# Disc length: 2292 seconds
#
# Revision: 1
# Processed by: cddbd v1.5.2PL0 Copyright (c) Steve Scherf et al.
# Submitted via: audiograbber 1.83.01
#
DISCID=8908f20b
DTITLE=Various Artist - CDX Volume 552 (August 13, 2012)
DYEAR=2012
DGENRE=Country
TTITLE0=J.T. Hodges - Sleepy Little Town
TTITLE1=Sarah Darling - Home To Me
TTITLE2=Buffy Lawson - I'm Leaving You For Me
TTITLE3=Tim Culpepper - Pourin' Whiskey On Pain
TTITLE4=Brad Puckett - At Least I'm Feeling Again
TTITLE5=Julie Ingram - Big Dog In Dallas
TTITLE6=Brooke Hudgins - Eighty Acres Of Stars (Radio Edit) 
TTITLE7=Coleman Brothers - Ghost Town
TTITLE8=Outbound Road - Home To Me
TTITLE9=Hillbilly Vegas - Little Miss Rough And Tumble
TTITLE10=Wheeler Sisters - The National Anthem
EXTD=
EXTT0=
EXTT1=
EXTT2=
EXTT3=
EXTT4=
EXTT5=
EXTT6=
EXTT7=
EXTT8=
EXTT9=
EXTT10=
PLAYORDER=
